ply
format ascii 1.0
comment Created by Blender 3.4.1 - www.blender.org
element vertex 318
property float x
property float y
property float z
property uchar red
property uchar green
property uchar blue
property uchar alpha
element face 106
property list uchar uint vertex_indices
end_header
-50.000000 -74.866249 -13.172163 200 70 120 255
-50.000000 75.128036 -13.172162 200 70 120 255
-20.000000 -74.866249 -13.172163 200 70 120 255
-50.000000 75.128036 -13.172162 200 70 120 255
-19.999998 75.128036 -13.172162 200 70 120 255
-20.000000 -74.866249 -13.172163 200 70 120 255
-20.000000 -74.866249 -13.172163 200 70 120 255
-20.000000 -44.867393 -13.172163 200 70 120 255
0.000068 -73.781708 -13.172163 200 70 120 255
-20.000000 -44.867393 -13.172163 200 70 120 255
0.000000 -44.867393 -13.172163 200 70 120 255
0.000068 -73.781708 -13.172163 200 70 120 255
-20.000000 -14.868534 -13.172163 200 70 120 255
-20.000000 15.130323 -13.172163 200 70 120 255
0.000000 -14.808534 -13.172163 200 70 120 255
-20.000000 15.130323 -13.172163 200 70 120 255
-5.259024 19.239595 -13.172163 200 70 120 255
0.000000 -14.808534 -13.172163 200 70 120 255
0.000068 -73.781708 -13.172163 71 178 207 255
0.000000 -74.043480 12.834397 71 178 207 255
-20.000000 -75.128044 12.834396 71 178 207 255
-50.000000 74.866249 12.834398 80 70 200 255
-20.000000 -75.128044 12.834396 80 70 200 255
-19.999998 74.866249 12.834398 80 70 200 255
-20.000000 -74.866249 -13.172163 71 178 207 255
0.000068 -73.781708 -13.172163 71 178 207 255
-20.000000 -75.128044 12.834396 71 178 207 255
-20.000000 -45.129181 12.834397 80 70 200 255
0.000000 -74.043480 12.834397 80 70 200 255
0.000000 -45.129181 12.834397 80 70 200 255
-20.000000 -15.130322 12.834397 80 70 200 255
0.000000 -15.070320 12.834397 80 70 200 255
-20.000000 14.868534 12.834397 80 70 200 255
-20.000000 14.868534 12.834397 80 70 200 255
0.000000 -15.070320 12.834397 80 70 200 255
-5.259024 18.977806 12.834396 80 70 200 255
-50.000000 -74.866249 -13.172163 71 178 207 255
-20.000000 -74.866249 -13.172163 71 178 207 255
-20.000000 -75.128044 12.834396 71 178 207 255
-20.000000 -75.128044 12.834396 71 178 207 255
-50.000000 -75.128044 12.834396 71 178 207 255
-50.000000 -74.866249 -13.172163 71 178 207 255
-20.000000 -44.867393 -13.172163 90 130 110 255
-20.000000 -45.129181 12.834397 90 130 110 255
0.000000 -44.867393 -13.172163 90 130 110 255
-20.000000 -45.129181 12.834397 90 130 110 255
0.000000 -45.129181 12.834397 90 130 110 255
0.000000 -44.867393 -13.172163 90 130 110 255
-20.000000 -44.867393 -13.172163 200 200 70 255
-20.000000 -14.868534 -13.172163 200 200 70 255
-20.000000 -45.129181 12.834397 200 200 70 255
-20.000000 -45.129181 12.834397 200 200 70 255
-20.000000 -14.868534 -13.172163 200 200 70 255
-20.000000 -15.130322 12.834397 200 200 70 255
-20.000000 -14.868534 -13.172163 210 100 70 255
-20.000000 -15.130322 12.834397 210 100 70 255
0.000000 -14.808534 -13.172163 210 100 70 255
-20.000000 -15.130322 12.834397 210 100 70 255
0.000000 -14.808534 -13.172163 210 100 70 255
0.000000 -15.070320 12.834397 210 100 70 255
-20.000000 15.130323 -13.172163 70 180 210 255
-20.000000 14.868534 12.834397 70 180 210 255
-5.259024 19.239595 -13.172163 70 180 210 255
-20.000000 14.868534 12.834397 70 180 210 255
-5.259024 18.977806 12.834396 70 180 210 255
-5.259024 19.239595 -13.172163 70 180 210 255
-20.000000 15.130323 -13.172163 100 70 210 255
-19.999998 75.128036 -13.172162 100 70 210 255
-20.000000 14.868534 12.834397 100 70 210 255
-20.000000 14.868534 12.834397 100 70 210 255
-19.999998 75.128036 -13.172162 100 70 210 255
-19.999998 74.866249 12.834398 100 70 210 255
-50.000000 75.128036 -13.172162 76 210 100 255
-50.000000 74.866249 12.834398 76 210 100 255
-19.999998 75.128036 -13.172162 76 210 100 255
-50.000000 74.866249 12.834398 76 210 100 255
-19.999998 74.866249 12.834398 76 210 100 255
-19.999998 75.128036 -13.172162 76 210 100 255
-50.000000 -74.866249 -13.172163 140 210 80 255
-50.000000 -75.128044 12.834396 140 210 80 255
-50.000000 75.128036 -13.172162 140 210 80 255
-50.000000 -75.128044 12.834396 140 210 80 255
-50.000000 74.866249 12.834398 140 210 80 255
-50.000000 75.128036 -13.172162 140 210 80 255
-5.259024 19.239595 -13.172163 71 178 207 255
21.930067 7.797258 12.834397 71 178 207 255
21.930067 8.059049 -13.172162 71 178 207 255
21.930067 -67.905800 -13.172163 71 178 207 255
0.000000 -74.043480 12.834397 71 178 207 255
0.000068 -73.781708 -13.172163 71 178 207 255
43.860065 -29.923380 -13.172162 71 178 207 255
37.983940 -52.114338 12.834397 71 178 207 255
37.983940 -51.852543 -13.172163 71 178 207 255
21.930067 8.059049 -13.172162 71 178 207 255
37.983940 -8.256004 12.834397 71 178 207 255
37.983940 -7.994215 -13.172163 71 178 207 255
37.983940 -51.852543 -13.172163 71 178 207 255
21.930067 -68.167595 12.834398 71 178 207 255
21.930067 -67.905800 -13.172163 71 178 207 255
37.983940 -7.994215 -13.172163 71 178 207 255
43.860065 -30.185173 12.834397 71 178 207 255
43.860065 -29.923380 -13.172162 71 178 207 255
15.100004 -29.907961 -13.172162 210 100 70 255
10.677315 -40.584869 -13.172162 210 100 70 255
10.677315 -40.846661 12.834397 210 100 70 255
0.000000 -14.808534 -13.172163 210 100 70 255
10.677315 -19.231054 -13.172164 210 100 70 255
10.677315 -19.492844 12.834398 210 100 70 255
10.677315 -40.584869 -13.172162 90 130 110 255
0.000000 -44.867393 -13.172163 90 130 110 255
0.000000 -45.129181 12.834397 90 130 110 255
10.677315 -19.231054 -13.172164 210 100 70 255
15.100004 -29.907961 -13.172162 210 100 70 255
15.100004 -30.169754 12.834397 210 100 70 255
10.677315 -19.231054 -13.172164 200 70 120 255
0.000000 -14.808534 -13.172163 200 70 120 255
21.930067 8.059049 -13.172162 200 70 120 255
0.000000 -14.808534 -13.172163 200 70 120 255
-5.259024 19.239595 -13.172163 200 70 120 255
21.930067 8.059049 -13.172162 200 70 120 255
21.930067 8.059049 -13.172162 200 70 120 255
37.983940 -7.994215 -13.172163 200 70 120 255
10.677315 -19.231054 -13.172164 200 70 120 255
37.983940 -7.994215 -13.172163 200 70 120 255
43.860065 -29.923380 -13.172162 200 70 120 255
15.100004 -29.907961 -13.172162 200 70 120 255
43.860065 -29.923380 -13.172162 200 70 120 255
37.983940 -51.852543 -13.172163 200 70 120 255
15.100004 -29.907961 -13.172162 200 70 120 255
37.983940 -51.852543 -13.172163 200 70 120 255
21.930067 -67.905800 -13.172163 200 70 120 255
10.677315 -40.584869 -13.172162 200 70 120 255
15.100004 -29.907961 -13.172162 200 70 120 255
37.983940 -51.852543 -13.172163 200 70 120 255
10.677315 -40.584869 -13.172162 200 70 120 255
21.930067 -67.905800 -13.172163 200 70 120 255
0.000068 -73.781708 -13.172163 200 70 120 255
0.000000 -44.867393 -13.172163 200 70 120 255
21.930067 -67.905800 -13.172163 200 70 120 255
0.000000 -44.867393 -13.172163 200 70 120 255
10.677315 -40.584869 -13.172162 200 70 120 255
37.983940 -7.994215 -13.172163 200 70 120 255
15.100004 -29.907961 -13.172162 200 70 120 255
10.677315 -19.231054 -13.172164 200 70 120 255
37.983940 -52.114338 12.834397 80 70 200 255
15.100004 -30.169754 12.834397 80 70 200 255
10.677315 -40.846661 12.834397 80 70 200 255
21.930067 7.797258 12.834397 80 70 200 255
-5.259024 18.977806 12.834396 80 70 200 255
0.000000 -15.070320 12.834397 80 70 200 255
21.930067 7.797258 12.834397 80 70 200 255
0.000000 -15.070320 12.834397 80 70 200 255
10.677315 -19.492844 12.834398 80 70 200 255
43.860065 -30.185173 12.834397 80 70 200 255
37.983940 -8.256004 12.834397 80 70 200 255
15.100004 -30.169754 12.834397 80 70 200 255
37.983940 -8.256004 12.834397 80 70 200 255
21.930067 7.797258 12.834397 80 70 200 255
10.677315 -19.492844 12.834398 80 70 200 255
15.100004 -30.169754 12.834397 80 70 200 255
37.983940 -8.256004 12.834397 80 70 200 255
10.677315 -19.492844 12.834398 80 70 200 255
21.930067 -68.167595 12.834398 80 70 200 255
37.983940 -52.114338 12.834397 80 70 200 255
10.677315 -40.846661 12.834397 80 70 200 255
37.983940 -52.114338 12.834397 80 70 200 255
43.860065 -30.185173 12.834397 80 70 200 255
15.100004 -30.169754 12.834397 80 70 200 255
0.000000 -45.129181 12.834397 80 70 200 255
0.000000 -74.043480 12.834397 80 70 200 255
21.930067 -68.167595 12.834398 80 70 200 255
10.677315 -40.846661 12.834397 80 70 200 255
0.000000 -45.129181 12.834397 80 70 200 255
21.930067 -68.167595 12.834398 80 70 200 255
-5.259024 19.239595 -13.172163 71 178 207 255
-5.259024 18.977806 12.834396 71 178 207 255
21.930067 7.797258 12.834397 71 178 207 255
21.930067 -67.905800 -13.172163 71 178 207 255
21.930067 -68.167595 12.834398 71 178 207 255
0.000000 -74.043480 12.834397 71 178 207 255
43.860065 -29.923380 -13.172162 71 178 207 255
43.860065 -30.185173 12.834397 71 178 207 255
37.983940 -52.114338 12.834397 71 178 207 255
21.930067 8.059049 -13.172162 71 178 207 255
21.930067 7.797258 12.834397 71 178 207 255
37.983940 -8.256004 12.834397 71 178 207 255
37.983940 -51.852543 -13.172163 71 178 207 255
37.983940 -52.114338 12.834397 71 178 207 255
21.930067 -68.167595 12.834398 71 178 207 255
37.983940 -7.994215 -13.172163 71 178 207 255
37.983940 -8.256004 12.834397 71 178 207 255
43.860065 -30.185173 12.834397 71 178 207 255
15.100004 -29.907961 -13.172162 210 100 70 255
10.677315 -40.846661 12.834397 210 100 70 255
15.100004 -30.169754 12.834397 210 100 70 255
0.000000 -14.808534 -13.172163 210 100 70 255
10.677315 -19.492844 12.834398 210 100 70 255
0.000000 -15.070320 12.834397 210 100 70 255
10.677315 -40.584869 -13.172162 90 130 110 255
0.000000 -45.129181 12.834397 90 130 110 255
10.677315 -40.846661 12.834397 90 130 110 255
10.677315 -19.231054 -13.172164 210 100 70 255
15.100004 -30.169754 12.834397 210 100 70 255
10.677315 -19.492844 12.834398 210 100 70 255
-50.000000 -75.128044 12.834396 80 70 200 255
-20.000000 -75.128044 12.834396 80 70 200 255
-50.000000 74.866249 12.834398 80 70 200 255
-20.000000 -45.129181 12.834397 80 70 200 255
-20.000000 -75.128044 12.834396 80 70 200 255
0.000000 -74.043480 12.834397 80 70 200 255
-11.433267 74.885208 -13.172162 71 178 207 255
10.496800 68.747498 12.834397 71 178 207 255
10.496800 69.009277 -13.172162 71 178 207 255
32.426800 31.026855 -13.172163 71 178 207 255
21.930067 7.797258 12.834397 71 178 207 255
21.930067 8.059049 -13.172162 71 178 207 255
10.496800 69.009277 -13.172162 71 178 207 255
26.550673 52.694229 12.834398 71 178 207 255
26.550673 52.956017 -13.172164 71 178 207 255
-11.433267 74.885208 -13.172162 71 178 207 255
-19.999998 74.623421 12.834397 71 178 207 255
-11.433267 74.623421 12.834397 71 178 207 255
26.550673 52.956017 -13.172164 71 178 207 255
32.426800 30.765062 12.834396 71 178 207 255
32.426800 31.026855 -13.172163 71 178 207 255
3.666737 31.042271 -13.172163 210 100 70 255
-5.259024 19.239595 -13.172163 210 100 70 255
-5.259024 18.977806 12.834396 210 100 70 255
-11.433267 46.141701 -13.172163 210 100 70 255
-0.755952 41.719181 -13.172162 210 100 70 255
-0.755952 41.457390 12.834397 210 100 70 255
-0.755952 41.719181 -13.172162 210 100 70 255
3.666737 31.042271 -13.172163 210 100 70 255
3.666737 30.780479 12.834396 210 100 70 255
-0.755952 41.719181 -13.172162 200 70 120 255
-11.433267 46.141701 -13.172163 200 70 120 255
10.496800 69.009277 -13.172162 200 70 120 255
-11.433267 46.141701 -13.172163 200 70 120 255
-11.433267 74.885208 -13.172162 200 70 120 255
10.496800 69.009277 -13.172162 200 70 120 255
10.496800 69.009277 -13.172162 200 70 120 255
26.550673 52.956017 -13.172164 200 70 120 255
-0.755952 41.719181 -13.172162 200 70 120 255
26.550673 52.956017 -13.172164 200 70 120 255
32.426800 31.026855 -13.172163 200 70 120 255
3.666737 31.042271 -13.172163 200 70 120 255
32.426800 31.026855 -13.172163 200 70 120 255
21.930067 8.059049 -13.172162 200 70 120 255
3.666737 31.042271 -13.172163 200 70 120 255
3.666737 31.042271 -13.172163 200 70 120 255
21.930067 8.059049 -13.172162 200 70 120 255
-5.259024 19.239595 -13.172163 200 70 120 255
26.550673 52.956017 -13.172164 200 70 120 255
3.666737 31.042271 -13.172163 200 70 120 255
-0.755952 41.719181 -13.172162 200 70 120 255
21.930067 7.797258 12.834397 80 70 200 255
3.666737 30.780479 12.834396 80 70 200 255
-5.259024 18.977806 12.834396 80 70 200 255
10.496800 68.747498 12.834397 80 70 200 255
-11.433267 74.623421 12.834397 80 70 200 255
-11.433267 45.879913 12.834396 80 70 200 255
10.496800 68.747498 12.834397 80 70 200 255
-11.433267 45.879913 12.834396 80 70 200 255
-0.755952 41.457390 12.834397 80 70 200 255
32.426800 30.765062 12.834396 80 70 200 255
26.550673 52.694229 12.834398 80 70 200 255
3.666737 30.780479 12.834396 80 70 200 255
26.550673 52.694229 12.834398 80 70 200 255
10.496800 68.747498 12.834397 80 70 200 255
-0.755952 41.457390 12.834397 80 70 200 255
3.666737 30.780479 12.834396 80 70 200 255
26.550673 52.694229 12.834398 80 70 200 255
-0.755952 41.457390 12.834397 80 70 200 255
-11.433267 46.141701 -13.172163 200 70 120 255
-19.999998 74.885208 -13.172162 200 70 120 255
-11.433267 74.885208 -13.172162 200 70 120 255
21.930067 7.797258 12.834397 80 70 200 255
32.426800 30.765062 12.834396 80 70 200 255
3.666737 30.780479 12.834396 80 70 200 255
-11.433267 74.885208 -13.172162 71 178 207 255
-11.433267 74.623421 12.834397 71 178 207 255
10.496800 68.747498 12.834397 71 178 207 255
32.426800 31.026855 -13.172163 71 178 207 255
32.426800 30.765062 12.834396 71 178 207 255
21.930067 7.797258 12.834397 71 178 207 255
10.496800 69.009277 -13.172162 71 178 207 255
10.496800 68.747498 12.834397 71 178 207 255
26.550673 52.694229 12.834398 71 178 207 255
-11.433267 45.879913 12.834396 210 100 70 255
-19.999998 46.141701 -13.172163 210 100 70 255
-11.433267 46.141701 -13.172163 210 100 70 255
26.550673 52.956017 -13.172164 71 178 207 255
26.550673 52.694229 12.834398 71 178 207 255
32.426800 30.765062 12.834396 71 178 207 255
3.666737 31.042271 -13.172163 210 100 70 255
-5.259024 18.977806 12.834396 210 100 70 255
3.666737 30.780479 12.834396 210 100 70 255
-11.433267 46.141701 -13.172163 210 100 70 255
-0.755952 41.457390 12.834397 210 100 70 255
-11.433267 45.879913 12.834396 210 100 70 255
-0.755952 41.719181 -13.172162 210 100 70 255
3.666737 30.780479 12.834396 210 100 70 255
-0.755952 41.457390 12.834397 210 100 70 255
-11.433267 46.141701 -13.172163 200 70 120 255
-19.999998 46.141701 -13.172163 200 70 120 255
-19.999998 74.885208 -13.172162 200 70 120 255
-11.433267 45.879913 12.834396 210 100 70 255
-19.999998 45.879913 12.834396 210 100 70 255
-19.999998 46.141701 -13.172163 210 100 70 255
-11.433267 74.885208 -13.172162 71 178 207 255
-19.999998 74.885208 -13.172162 71 178 207 255
-19.999998 74.623421 12.834397 71 178 207 255
-11.433267 74.623421 12.834397 80 70 200 255
-19.999998 45.879913 12.834396 80 70 200 255
-11.433267 45.879913 12.834396 80 70 200 255
-11.433267 74.623421 12.834397 80 70 200 255
-19.999998 74.623421 12.834397 80 70 200 255
-19.999998 45.879913 12.834396 80 70 200 255
3 0 1 2
3 3 4 5
3 6 7 8
3 9 10 11
3 12 13 14
3 15 16 17
3 18 19 20
3 21 22 23
3 24 25 26
3 27 28 29
3 30 31 32
3 33 34 35
3 36 37 38
3 39 40 41
3 42 43 44
3 45 46 47
3 48 49 50
3 51 52 53
3 54 55 56
3 57 58 59
3 60 61 62
3 63 64 65
3 66 67 68
3 69 70 71
3 72 73 74
3 75 76 77
3 78 79 80
3 81 82 83
3 84 85 86
3 87 88 89
3 90 91 92
3 93 94 95
3 96 97 98
3 99 100 101
3 102 103 104
3 105 106 107
3 108 109 110
3 111 112 113
3 114 115 116
3 117 118 119
3 120 121 122
3 123 124 125
3 126 127 128
3 129 130 131
3 132 133 134
3 135 136 137
3 138 139 140
3 141 142 143
3 144 145 146
3 147 148 149
3 150 151 152
3 153 154 155
3 156 157 158
3 159 160 161
3 162 163 164
3 165 166 167
3 168 169 170
3 171 172 173
3 174 175 176
3 177 178 179
3 180 181 182
3 183 184 185
3 186 187 188
3 189 190 191
3 192 193 194
3 195 196 197
3 198 199 200
3 201 202 203
3 204 205 206
3 207 208 209
3 210 211 212
3 213 214 215
3 216 217 218
3 219 220 221
3 222 223 224
3 225 226 227
3 228 229 230
3 231 232 233
3 234 235 236
3 237 238 239
3 240 241 242
3 243 244 245
3 246 247 248
3 249 250 251
3 252 253 254
3 255 256 257
3 258 259 260
3 261 262 263
3 264 265 266
3 267 268 269
3 270 271 272
3 273 274 275
3 276 277 278
3 279 280 281
3 282 283 284
3 285 286 287
3 288 289 290
3 291 292 293
3 294 295 296
3 297 298 299
3 300 301 302
3 303 304 305
3 306 307 308
3 309 310 311
3 312 313 314
3 315 316 317
