ply
format ascii 1.0
comment Created by Blender 3.4.1 - www.blender.org
element vertex 210
property float x
property float y
property float z
property uchar red
property uchar green
property uchar blue
property uchar alpha
element face 70
property list uchar uint vertex_indices
end_header
-50.000000 -74.866249 -15.653904 200 70 120 255
-50.000000 75.128044 -14.344954 200 70 120 255
-20.000000 -74.866249 -15.653904 200 70 120 255
-50.000000 75.128044 -14.344954 200 70 120 255
-20.000000 75.128044 -14.344954 200 70 120 255
-20.000000 -74.866249 -15.653904 200 70 120 255
-20.000000 -74.866249 -15.653904 200 70 120 255
-20.000000 -44.867393 -15.392114 200 70 120 255
0.000068 -73.781708 -15.644432 200 70 120 255
-20.000000 -44.867393 -15.392114 200 70 120 255
0.000000 -44.867393 -15.392114 200 70 120 255
0.000068 -73.781708 -15.644432 200 70 120 255
-20.000000 -14.868534 -15.130323 200 70 120 255
-20.000000 15.130323 -14.868534 200 70 120 255
0.000000 -14.808533 -15.129800 200 70 120 255
-20.000000 15.130323 -14.868534 200 70 120 255
0.000000 13.934969 -14.878958 200 70 120 255
0.000000 -14.808533 -15.129800 200 70 120 255
0.000068 -73.781708 -15.644432 71 178 207 255
0.000000 -74.043480 14.354418 71 178 207 255
-20.000000 -75.128044 14.344954 71 178 207 255
-50.000000 74.866249 15.653904 80 70 200 255
-20.000000 -75.128044 14.344954 80 70 200 255
-20.000000 74.866249 15.653896 80 70 200 255
-20.000000 -74.866249 -15.653904 71 178 207 255
0.000068 -73.781708 -15.644432 71 178 207 255
-20.000000 -75.128044 14.344954 71 178 207 255
-20.000000 -45.129181 14.606744 80 70 200 255
0.000000 -74.043480 14.354418 80 70 200 255
0.000000 -45.129181 14.606744 80 70 200 255
-20.000000 -15.130323 14.868534 80 70 200 255
0.000000 -15.070322 14.869058 80 70 200 255
-20.000000 14.868534 15.130323 80 70 200 255
-20.000000 14.868534 15.130323 80 70 200 255
0.000000 -15.070322 14.869058 80 70 200 255
0.000000 13.673180 15.119892 80 70 200 255
-50.000000 -74.866249 -15.653904 71 178 207 255
-20.000000 -74.866249 -15.653904 71 178 207 255
-20.000000 -75.128044 14.344954 71 178 207 255
-20.000000 -75.128044 14.344954 71 178 207 255
-50.000000 -75.128044 14.344954 71 178 207 255
-50.000000 -74.866249 -15.653904 71 178 207 255
-20.000000 -44.867393 -15.392114 90 130 110 255
-20.000000 -45.129181 14.606744 90 130 110 255
0.000000 -44.867393 -15.392114 90 130 110 255
-20.000000 -45.129181 14.606744 90 130 110 255
0.000000 -45.129181 14.606744 90 130 110 255
0.000000 -44.867393 -15.392114 90 130 110 255
-20.000000 -44.867393 -15.392114 200 200 70 255
-20.000000 -14.868534 -15.130323 200 200 70 255
-20.000000 -45.129181 14.606744 200 200 70 255
-20.000000 -45.129181 14.606744 200 200 70 255
-20.000000 -14.868534 -15.130323 200 200 70 255
-20.000000 -15.130323 14.868534 200 200 70 255
-20.000000 -14.868534 -15.130323 210 100 70 255
-20.000000 -15.130323 14.868534 210 100 70 255
0.000000 -14.808533 -15.129800 210 100 70 255
-20.000000 -15.130323 14.868534 210 100 70 255
0.000000 -14.808533 -15.129800 210 100 70 255
0.000000 -15.070322 14.869058 210 100 70 255
-20.000000 15.130323 -14.868534 70 180 210 255
-20.000000 14.868534 15.130323 70 180 210 255
0.000000 13.934969 -14.878958 70 180 210 255
-20.000000 14.868534 15.130323 70 180 210 255
0.000000 13.673180 15.119892 70 180 210 255
0.000000 13.934969 -14.878958 70 180 210 255
-20.000000 15.130323 -14.868534 100 70 210 255
-20.000000 75.128044 -14.344954 100 70 210 255
-20.000000 14.868534 15.130323 100 70 210 255
-20.000000 14.868534 15.130323 100 70 210 255
-20.000000 75.128044 -14.344954 100 70 210 255
-20.000000 74.866249 15.653896 100 70 210 255
-50.000000 75.128044 -14.344954 76 210 100 255
-50.000000 74.866249 15.653904 76 210 100 255
-20.000000 75.128044 -14.344954 76 210 100 255
-50.000000 74.866249 15.653904 76 210 100 255
-20.000000 74.866249 15.653896 76 210 100 255
-20.000000 75.128044 -14.344954 76 210 100 255
-50.000000 -74.866249 -15.653904 140 210 80 255
-50.000000 -75.128044 14.344954 140 210 80 255
-50.000000 75.128044 -14.344954 140 210 80 255
-50.000000 -75.128044 14.344954 140 210 80 255
-50.000000 74.866249 15.653904 140 210 80 255
-50.000000 75.128044 -14.344954 140 210 80 255
0.000000 13.934969 -14.878958 71 178 207 255
21.930067 7.797258 15.068606 71 178 207 255
21.930067 8.059049 -14.930235 71 178 207 255
21.930067 -67.905800 -15.593155 71 178 207 255
0.000000 -74.043480 14.354418 71 178 207 255
0.000068 -73.781708 -15.644432 71 178 207 255
43.860065 -29.923380 -15.261695 71 178 207 255
37.983940 -52.114334 14.545778 71 178 207 255
37.983940 -51.852547 -15.453063 71 178 207 255
21.930067 8.059049 -14.930235 71 178 207 255
37.983940 -8.256004 14.928515 71 178 207 255
37.983940 -7.994215 -15.070326 71 178 207 255
37.983940 -51.852547 -15.453063 71 178 207 255
21.930067 -68.167595 14.405686 71 178 207 255
21.930067 -67.905800 -15.593155 71 178 207 255
37.983940 -7.994215 -15.070326 71 178 207 255
43.860065 -30.185171 14.737146 71 178 207 255
43.860065 -29.923380 -15.261695 71 178 207 255
15.100004 -29.907961 -15.261568 210 100 70 255
10.677315 -40.584869 -15.354742 210 100 70 255
10.677315 -40.846657 14.644115 210 100 70 255
0.000000 -14.808533 -15.129800 210 100 70 255
10.677315 -19.231052 -15.168394 210 100 70 255
10.677315 -19.492844 14.830463 210 100 70 255
10.677315 -40.584869 -15.354742 90 130 110 255
0.000000 -44.867393 -15.392114 90 130 110 255
0.000000 -45.129181 14.606744 90 130 110 255
10.677315 -19.231052 -15.168394 210 100 70 255
15.100004 -29.907961 -15.261568 210 100 70 255
15.100004 -30.169752 14.737289 210 100 70 255
10.677315 -19.231052 -15.168394 200 70 120 255
0.000000 -14.808533 -15.129800 200 70 120 255
21.930067 8.059049 -14.930235 200 70 120 255
0.000000 -14.808533 -15.129800 200 70 120 255
0.000000 13.934969 -14.878958 200 70 120 255
21.930067 8.059049 -14.930235 200 70 120 255
21.930067 8.059049 -14.930235 200 70 120 255
37.983940 -7.994215 -15.070326 200 70 120 255
10.677315 -19.231052 -15.168394 200 70 120 255
37.983940 -7.994215 -15.070326 200 70 120 255
43.860065 -29.923380 -15.261695 200 70 120 255
15.100004 -29.907961 -15.261568 200 70 120 255
43.860065 -29.923380 -15.261695 200 70 120 255
37.983940 -51.852547 -15.453063 200 70 120 255
15.100004 -29.907961 -15.261568 200 70 120 255
37.983940 -51.852547 -15.453063 200 70 120 255
21.930067 -67.905800 -15.593155 200 70 120 255
10.677315 -40.584869 -15.354742 200 70 120 255
15.100004 -29.907961 -15.261568 200 70 120 255
37.983940 -51.852547 -15.453063 200 70 120 255
10.677315 -40.584869 -15.354742 200 70 120 255
21.930067 -67.905800 -15.593155 200 70 120 255
0.000068 -73.781708 -15.644432 200 70 120 255
0.000000 -44.867393 -15.392114 200 70 120 255
21.930067 -67.905800 -15.593155 200 70 120 255
0.000000 -44.867393 -15.392114 200 70 120 255
10.677315 -40.584869 -15.354742 200 70 120 255
37.983940 -7.994215 -15.070326 200 70 120 255
15.100004 -29.907961 -15.261568 200 70 120 255
10.677315 -19.231052 -15.168394 200 70 120 255
37.983940 -52.114334 14.545778 80 70 200 255
15.100004 -30.169752 14.737289 80 70 200 255
10.677315 -40.846657 14.644115 80 70 200 255
21.930067 7.797258 15.068606 80 70 200 255
0.000000 13.673180 15.119892 80 70 200 255
0.000000 -15.070322 14.869058 80 70 200 255
21.930067 7.797258 15.068606 80 70 200 255
0.000000 -15.070322 14.869058 80 70 200 255
10.677315 -19.492844 14.830463 80 70 200 255
43.860065 -30.185171 14.737146 80 70 200 255
37.983940 -8.256004 14.928515 80 70 200 255
15.100004 -30.169752 14.737289 80 70 200 255
37.983940 -8.256004 14.928515 80 70 200 255
21.930067 7.797258 15.068606 80 70 200 255
10.677315 -19.492844 14.830463 80 70 200 255
15.100004 -30.169752 14.737289 80 70 200 255
37.983940 -8.256004 14.928515 80 70 200 255
10.677315 -19.492844 14.830463 80 70 200 255
21.930067 -68.167595 14.405686 80 70 200 255
37.983940 -52.114334 14.545778 80 70 200 255
10.677315 -40.846657 14.644115 80 70 200 255
37.983940 -52.114334 14.545778 80 70 200 255
43.860065 -30.185171 14.737146 80 70 200 255
15.100004 -30.169752 14.737289 80 70 200 255
0.000000 -45.129181 14.606744 80 70 200 255
0.000000 -74.043480 14.354418 80 70 200 255
21.930067 -68.167595 14.405686 80 70 200 255
10.677315 -40.846657 14.644115 80 70 200 255
0.000000 -45.129181 14.606744 80 70 200 255
21.930067 -68.167595 14.405686 80 70 200 255
0.000000 13.934969 -14.878958 71 178 207 255
0.000000 13.673180 15.119892 71 178 207 255
21.930067 7.797258 15.068606 71 178 207 255
21.930067 -67.905800 -15.593155 71 178 207 255
21.930067 -68.167595 14.405686 71 178 207 255
0.000000 -74.043480 14.354418 71 178 207 255
43.860065 -29.923380 -15.261695 71 178 207 255
43.860065 -30.185171 14.737146 71 178 207 255
37.983940 -52.114334 14.545778 71 178 207 255
21.930067 8.059049 -14.930235 71 178 207 255
21.930067 7.797258 15.068606 71 178 207 255
37.983940 -8.256004 14.928515 71 178 207 255
37.983940 -51.852547 -15.453063 71 178 207 255
37.983940 -52.114334 14.545778 71 178 207 255
21.930067 -68.167595 14.405686 71 178 207 255
37.983940 -7.994215 -15.070326 71 178 207 255
37.983940 -8.256004 14.928515 71 178 207 255
43.860065 -30.185171 14.737146 71 178 207 255
15.100004 -29.907961 -15.261568 210 100 70 255
10.677315 -40.846657 14.644115 210 100 70 255
15.100004 -30.169752 14.737289 210 100 70 255
0.000000 -14.808533 -15.129800 210 100 70 255
10.677315 -19.492844 14.830463 210 100 70 255
0.000000 -15.070322 14.869058 210 100 70 255
10.677315 -40.584869 -15.354742 90 130 110 255
0.000000 -45.129181 14.606744 90 130 110 255
10.677315 -40.846657 14.644115 90 130 110 255
10.677315 -19.231052 -15.168394 210 100 70 255
15.100004 -30.169752 14.737289 210 100 70 255
10.677315 -19.492844 14.830463 210 100 70 255
-50.000000 -75.128044 14.344954 80 70 200 255
-20.000000 -75.128044 14.344954 80 70 200 255
-50.000000 74.866249 15.653904 80 70 200 255
-20.000000 -45.129181 14.606744 80 70 200 255
-20.000000 -75.128044 14.344954 80 70 200 255
-0.000000 -74.043480 14.354430 80 70 200 255
3 0 1 2
3 3 4 5
3 6 7 8
3 9 10 11
3 12 13 14
3 15 16 17
3 18 19 20
3 21 22 23
3 24 25 26
3 27 28 29
3 30 31 32
3 33 34 35
3 36 37 38
3 39 40 41
3 42 43 44
3 45 46 47
3 48 49 50
3 51 52 53
3 54 55 56
3 57 58 59
3 60 61 62
3 63 64 65
3 66 67 68
3 69 70 71
3 72 73 74
3 75 76 77
3 78 79 80
3 81 82 83
3 84 85 86
3 87 88 89
3 90 91 92
3 93 94 95
3 96 97 98
3 99 100 101
3 102 103 104
3 105 106 107
3 108 109 110
3 111 112 113
3 114 115 116
3 117 118 119
3 120 121 122
3 123 124 125
3 126 127 128
3 129 130 131
3 132 133 134
3 135 136 137
3 138 139 140
3 141 142 143
3 144 145 146
3 147 148 149
3 150 151 152
3 153 154 155
3 156 157 158
3 159 160 161
3 162 163 164
3 165 166 167
3 168 169 170
3 171 172 173
3 174 175 176
3 177 178 179
3 180 181 182
3 183 184 185
3 186 187 188
3 189 190 191
3 192 193 194
3 195 196 197
3 198 199 200
3 201 202 203
3 204 205 206
3 207 208 209
