ply
format ascii 1.0
comment Created by Blender 3.4.1 - www.blender.org
element vertex 22
property float x
property float y
property float z
property uchar red
property uchar green
property uchar blue
property uchar alpha
element face 32
property list uchar uint vertex_indices
end_header
-20.000000 75.000000 15.000000 200 70 120 255
-50.000000 75.000000 15.000000 200 70 120 255
-50.000000 -75.000000 15.000000 140 210 80 255
-20.000000 -75.000000 15.000000 100 70 210 255
50.000000 75.000000 15.000000 200 70 120 255
-20.000000 45.000000 15.000000 200 70 120 255
50.000000 45.000000 15.000000 90 130 110 255
-20.000000 -15.000000 15.000000 200 70 120 255
20.000000 15.000000 15.000000 210 100 70 255
-20.000000 15.000000 15.000000 200 200 70 255
20.000000 -15.000000 15.000000 70 180 210 255
-20.000000 75.000000 -15.000000 80 70 200 255
-50.000000 -75.000000 -15.000000 76 210 100 255
-50.000000 75.000000 -15.000000 70 200 210 255
-20.000000 -75.000000 -15.000000 255 255 255 255
-20.000000 45.000000 -15.000000 80 70 200 255
50.000000 75.000000 -15.000000 160 160 220 255
50.000000 45.000000 -15.000000 255 255 255 255
-20.000000 -15.000000 -15.000000 80 70 200 255
-20.000000 15.000000 -15.000000 255 255 255 255
20.000000 15.000000 -15.000000 210 160 70 255
20.000000 -15.000000 -15.000000 80 70 200 255
3 0 1 2
3 0 2 3
3 4 0 5
3 5 6 4
3 7 8 9
3 7 10 8
3 11 12 13
3 11 14 12
3 15 11 16
3 15 16 17
3 18 19 20
3 18 20 21
3 13 1 4
3 13 4 16
3 16 4 6
3 16 6 17
3 6 5 15
3 6 15 17
3 9 15 5
3 9 19 15
3 8 19 9
3 8 20 19
3 20 8 10
3 20 10 21
3 10 7 18
3 10 18 21
3 3 18 7
3 3 14 18
3 12 3 2
3 12 14 3
3 2 1 13
3 2 13 12
